<svg xmlns="http://www.w3.org/2000/svg" viewBox="0 0 333.38 209.94"><defs><style>.cls-1{fill:#a5a6a4;stroke:#d0d0d0;stroke-width:5px;}.cls-1,.cls-2{stroke-miterlimit:10;}.cls-2,.cls-3,.cls-4{fill:#fff;}.cls-2{stroke:#fff;}.cls-4{opacity:0.96;}</style></defs><g id="Layer_3" data-name="Layer 3"><g id="Layer_2" data-name="Layer 2"><circle class="cls-1" cx="169.22" cy="103.43" r="93.2"/></g><path class="cls-2" d="M228,461.08s-14.87-37-1.43-61.43c-33,7.43-58.7,18.52-61.7,24.13,0,11.22-.52,51.52-.52,51.52S186.17,456.91,228,461.08Z" transform="translate(-163.88 -320.03)"/><path class="cls-2" d="M433.09,461.08s14.87-37,1.43-61.43c33,7.43,58.7,18.52,61.7,24.13,0,11.22.52,51.52.52,51.52S475,456.91,433.09,461.08Z" transform="translate(-163.88 -320.03)"/><path class="cls-3" d="M278.57,339.07a28.15,28.15,0,0,0-3,4.51,53.8,53.8,0,0,0-2.61,5.94c-.93,2.47-2.43,6.82-4.17,13.37a265.31,265.31,0,0,0,0,124.22c1.41,5.33,2.74,9.39,3.81,12.37a57.73,57.73,0,0,0,2.85,6.8,25.66,25.66,0,0,0,3.11,4.65c1.18,3.13,1.79,4.66,3.07,7.64a91.24,91.24,0,0,1-9.88-5.49c-1.58-2.76-2.33-4.19-3.78-7.11a4.56,4.56,0,0,0,.11-1.72,15.33,15.33,0,0,0-.65-2.43c-.35-1.06-1-2.72-1.82-5s-2.31-6.23-4.08-12a244.17,244.17,0,0,1-8.62-68.6,202.13,202.13,0,0,1,3-27.22,178.68,178.68,0,0,1,4.94-20.81l-.51.14q-1.77,5.21-3.31,10.39c-1,3.46-2.86,9.66-4.77,18.94-5.59,32.34-6.41,65.3,6,96.29-1.48-.69-2.21-1-3.65-1.75-17-33-24.18-66.11-17.84-102.93a96.1,96.1,0,0,1,4.86-15.63l-.39.15c-6.72,15.44-9.5,31-10.7,47.72.33,19.66,3,38.83,11.79,56.69a97.31,97.31,0,0,0,6,11c1.3,2,2.53,3.75,3.63,5.19s2.27,2.77,3.49,4.06c1.8,2.59,2.73,3.86,4.68,6.3-2.55-2.09-3.78-3.18-6.16-5.45-2.16-2.24-3.2-3.39-5.19-5.78a6.79,6.79,0,0,0-.6-1.24c-.32-.56-.89-1.44-1.67-2.65s-1.82-2.81-3.09-4.88-2.85-4.77-4.6-8.19c-15.47-34.76-15.48-68.39,0-103.16A118.94,118.94,0,0,1,245,362.78c1.14-1.8,2-3.17,2.66-4.16a12.31,12.31,0,0,0,1.17-2.16c2-2.39,3-3.54,5.19-5.78a95.21,95.21,0,0,1,8.18-7.08c-20.79,29.9-22.72,65.78-17.91,100.77-.27-39.06,9.37-73.88,28.29-108a92.28,92.28,0,0,1,9.06-5C280.36,334.41,279.75,335.94,278.57,339.07Z" transform="translate(-163.88 -320.03)"/><path class="cls-3" d="M308.33,529.59c-7.53-3.16-11.3-15.91-14.45-24.61-8.78-24.3-11.2-52.17-11.34-78.1-.11-19.79,1.46-40.47,5.91-59.94,2.66-11.65,5.84-23.43,10.93-34.41,3.55-7.65,6.65-11.64,9.48-12.24,4.4-.92,6.75,5.49,8.29,21.44,2.56,26.59,2.15,53.6,2.12,80.28,0,17.82,0,35.78-.67,53.53-.39,11-.81,22.07-2,33-.86,8.08-1.91,13.55-3.26,16.84S309.92,530.26,308.33,529.59Zm-16.4-107.16c-.1,23.32,1.32,47.42,6.2,70.63,3,14.35,5.94,21.06,8.37,21.44,1.25.2,2.07-1.49,2.57-5.22a144.84,144.84,0,0,0,.81-16.41c.07-7.3,0-16.26-.16-27.05-.15-12.27-.3-24.59-.35-36.84-.06-18.15.19-36.44.3-54.6.07-9.94.29-20-.39-29.95-.43-6.3-1.36-9.16-3-8.9-2.36.37-5.17,6.69-8.06,20.12C293.5,377.57,292,400.38,291.93,422.43Z" transform="translate(-163.88 -320.03)"/><path class="cls-3" d="M339.35,529.64a94.75,94.75,0,0,1-12.39.23c-.1-3.42-.14-5.17-.23-8.73a12.11,12.11,0,0,0,1.41-2.89,19.63,19.63,0,0,0,.77-4.41c.16-1.91.26-4.35.29-7.36s0-6.86,0-11.66q-.39-69.74,0-139.49c0-4.7,0-8.53,0-11.59s-.11-5.51-.28-7.36a22.72,22.72,0,0,0-.76-4.49,11,11,0,0,0-1.44-3c.09-3.56.13-5.31.23-8.73a95.45,95.45,0,0,1,13.75.34,7.29,7.29,0,0,1,4.85,2.62,25.64,25.64,0,0,1,4.14,7.09A70,70,0,0,1,353,340c1,4,2,8.72,2.89,14.24S357.46,366.32,358,374a211,211,0,0,1,.26,26.63,124.31,124.31,0,0,1-2.5,19.27,78.21,78.21,0,0,1-4.83,14.8c0,.67,0,1,0,1.68a59.33,59.33,0,0,1,3.49,14.11,206,206,0,0,1,1.72,21.55c.25,8.45.31,12.56.27,20.49,0,8.84-.11,15.05,0,19.09s.52,6.31,1.28,7c-.58,3.47-.88,5.16-1.5,8.48-3.42.78-5.16,1.1-8.68,1.62-.06-10.84-.24-21.66-.47-32.49-.25-10-.48-15.27-1.07-26.08-.45-8-.95-13.9-1.4-17.4a34.87,34.87,0,0,0-1.49-7.26,2.65,2.65,0,0,0-2.52-2h-1.8c-.14,17.06-.36,34.11-.77,51.17-.18,7.47-.27,12.44-.24,15.26a45.64,45.64,0,0,0,.46,6.67,10.64,10.64,0,0,0,1.66,4.25C339.65,524.48,339.56,526.23,339.35,529.64Zm-1.93-193.43q1.32,43.74,1.36,87.51h3.11c1.67,0,3-1.24,4.11-3.66a38.51,38.51,0,0,0,2.48-10.1,127.93,127.93,0,0,0,1-14.94c.1-5.64,0-11.74-.25-18.23-.4-10.27-1.12-20.8-3.42-30.8-1.5-6.57-3.35-9.81-5.51-9.93A8.49,8.49,0,0,0,337.42,336.21Z" transform="translate(-163.88 -320.03)"/><path class="cls-4" d="M386.08,465.05c-4.66.54-7,.79-11.86,1.22-.89,5.84-1.38,8.72-2.42,14.36-.73,4-1.44,7.73-2.12,11.33s-1.35,7.31-2,11.14c-1.57,8.95-1.8,13.16-.35,13.32-.8,3.36-1.21,5-2.07,8.23a93.54,93.54,0,0,1-9.33,2.53c.62-3.31.92-5,1.48-8.47.64-.46,1.34-1.69,2.12-3.73a83.4,83.4,0,0,0,2.55-8.33c.91-3.54,2.09-8.65,3.41-15.57,9.7-53.71,15.7-111.68,2.82-165.45,2.24.8,3.34,1.24,5.52,2.16,19.46,51.44,26.58,105.13,17.39,159.59-1.31,6.54-2.45,10.89-3.09,13.42s-1.09,4.47-1.32,5.89-.22,2.32.1,2.75c-1.27,3.07-1.93,4.57-3.3,7.48a92.75,92.75,0,0,1-11.12,5.14c1.06-3.11,1.57-4.71,2.54-8a11.7,11.7,0,0,0,2.79-4.17,51.27,51.27,0,0,0,2.89-8.47c.71-2.69,1.4-5.7,2-9.1s1.37-7.75,2-13.18S385.68,470.82,386.08,465.05ZM376.6,448c4.17-.21,6.23-.32,10.31-.57A428.7,428.7,0,0,0,377.59,361C380.29,390.16,379.55,418.85,376.6,448Z" transform="translate(-163.88 -320.03)"/><path class="cls-3" d="M395.59,509.53a91.36,91.36,0,0,1-9.74,6.15c1.44-2.86,2.13-4.34,3.46-7.36a30.72,30.72,0,0,0,4.54-7.05c.82-1.67,1.74-3.76,2.72-6.31s2.16-5.82,3.41-9.89c11-40.33,11-79.67,0-120-1.22-4-2.38-7.22-3.37-9.82s-1.91-4.69-2.7-6.31a36.47,36.47,0,0,0-2.28-4.08,28.84,28.84,0,0,0-2.36-3.16c-1.33-3-2-4.5-3.46-7.36a91.18,91.18,0,0,1,10.77,6.89,38.2,38.2,0,0,1,4.66,4.22c1.74,1.78,3.77,4,6.08,6.76,1.91,2.25,4.05,4.91,6.32,8.06a111.3,111.3,0,0,1,7,10.94,93.2,93.2,0,0,1,6.7,14.86,76,76,0,0,1,4.26,20.13,56.63,56.63,0,0,1-.88,14.84,49.53,49.53,0,0,1-4,11.76c0,.54-.05.81-.08,1.34a33.49,33.49,0,0,1,1.8,10.92,70.31,70.31,0,0,1-1.75,16.33,78.26,78.26,0,0,1-4.7,15,93.67,93.67,0,0,1-6.59,13.19c-1.56,2.62-2.38,3.86-2.23,3.94-2,2.39-3,3.54-5.19,5.78-2.42,2.31-3.68,3.42-6.28,5.55a87.45,87.45,0,0,0,12.15-23.26A95.25,95.25,0,0,0,419,461.5a87.75,87.75,0,0,0,1.27-13.82,21.78,21.78,0,0,0-.57-5.8,1.77,1.77,0,0,0-1.93-1.46l-1.49.11a225.1,225.1,0,0,1-9.14,42.25c-2.17,6.08-3.94,10.06-4.89,12.28s-1.65,3.91-2.07,5.09a5.32,5.32,0,0,0-.42,2.61C398.17,505.54,397.33,506.9,395.59,509.53Zm5.09-157.7c10.46,23.66,15.21,46.25,16.28,72.09l2.57,0c1.37,0,2.51-1,3.33-3a25.48,25.48,0,0,0,1.65-8.09,61.77,61.77,0,0,0-.45-11.87,100.75,100.75,0,0,0-2.95-14.37,94.93,94.93,0,0,0-10.57-24.46c-3.34-5.45-6-8.53-7.68-9.41A9.26,9.26,0,0,0,400.68,351.83Z" transform="translate(-163.88 -320.03)"/></g></svg>