<svg id="visual" viewBox="0 0 900 600" width="900" height="600" xmlns="http://www.w3.org/2000/svg" xmlns:xlink="http://www.w3.org/1999/xlink" version="1.1"><g stroke-width="1" stroke-linejoin="bevel"><path d="M482 273.1L532 233.1L511 220.4Z" fill="#757575" stroke="#757575"></path><path d="M482 273.1L571 374.6L532 233.1Z" fill="#b2b2b2" stroke="#b2b2b2"></path><path d="M511 220.4L409 209.4L482 273.1Z" fill="#939393" stroke="#939393"></path><path d="M482 273.1L402 288.9L480 335.9Z" fill="#585859" stroke="#585859"></path><path d="M409 209.4L402 288.9L482 273.1Z" fill="#757575" stroke="#757575"></path><path d="M571 374.6L630 259.1L532 233.1Z" fill="#b2b2b2" stroke="#b2b2b2"></path><path d="M532 233.1L561 94.7L511 220.4Z" fill="#757575" stroke="#757575"></path><path d="M454 428.6L541 385.9L480 335.9Z" fill="#e2e2e2" stroke="#e2e2e2"></path><path d="M480 335.9L571 374.6L482 273.1Z" fill="#e2e2e2" stroke="#e2e2e2"></path><path d="M541 385.9L571 374.6L480 335.9Z" fill="#757575" stroke="#757575"></path><path d="M409 116.7L379 195.4L409 209.4Z" fill="#e2e2e2" stroke="#e2e2e2"></path><path d="M409 209.4L361 251.1L402 288.9Z" fill="#757575" stroke="#757575"></path><path d="M379 195.4L361 251.1L409 209.4Z" fill="#585859" stroke="#585859"></path><path d="M442 74.7L409 116.7L511 220.4Z" fill="#a2a2a2" stroke="#a2a2a2"></path><path d="M511 220.4L409 116.7L409 209.4Z" fill="#b2b2b2" stroke="#b2b2b2"></path><path d="M667 177.4L561 94.7L532 233.1Z" fill="#757575" stroke="#757575"></path><path d="M571 374.6L676 293.9L630 259.1Z" fill="#838384" stroke="#838384"></path><path d="M630 259.1L667 177.4L532 233.1Z" fill="#585859" stroke="#585859"></path><path d="M726 224.1L667 177.4L630 259.1Z" fill="#f2f2f2" stroke="#f2f2f2"></path><path d="M369 460.6L454 428.6L402 288.9Z" fill="#666667" stroke="#666667"></path><path d="M402 288.9L454 428.6L480 335.9Z" fill="#b2b2b2" stroke="#b2b2b2"></path><path d="M643 438.6L687 370.9L571 374.6Z" fill="#f2f2f2" stroke="#f2f2f2"></path><path d="M561 94.7L442 74.7L511 220.4Z" fill="#666667" stroke="#666667"></path><path d="M667 177.4L622 84.7L561 94.7Z" fill="#666667" stroke="#666667"></path><path d="M547 0L466 0L442 74.7Z" fill="#757575" stroke="#757575"></path><path d="M667 177.4L682 127.4L622 84.7Z" fill="#d1d1d1" stroke="#d1d1d1"></path><path d="M726 224.1L682 127.4L667 177.4Z" fill="#f2f2f2" stroke="#f2f2f2"></path><path d="M571 374.6L687 370.9L676 293.9Z" fill="#d1d1d1" stroke="#d1d1d1"></path><path d="M676 293.9L726 224.1L630 259.1Z" fill="#757575" stroke="#757575"></path><path d="M643 438.6L571 374.6L541 385.9Z" fill="#838384" stroke="#838384"></path><path d="M861 286.1L726 224.1L676 293.9Z" fill="#b2b2b2" stroke="#b2b2b2"></path><path d="M491 507.3L643 438.6L541 385.9Z" fill="#e2e2e2" stroke="#e2e2e2"></path><path d="M289 382.6L369 460.6L402 288.9Z" fill="#c1c1c1" stroke="#c1c1c1"></path><path d="M454 428.6L491 507.3L541 385.9Z" fill="#585859" stroke="#585859"></path><path d="M243 299.1L289 382.6L361 251.1Z" fill="#838384" stroke="#838384"></path><path d="M361 251.1L289 382.6L402 288.9Z" fill="#c1c1c1" stroke="#c1c1c1"></path><path d="M243 299.1L361 251.1L230 125.4Z" fill="#a2a2a2" stroke="#a2a2a2"></path><path d="M547 0L442 74.7L561 94.7Z" fill="#939393" stroke="#939393"></path><path d="M442 74.7L406 0L409 116.7Z" fill="#c1c1c1" stroke="#c1c1c1"></path><path d="M622 84.7L547 0L561 94.7Z" fill="#757575" stroke="#757575"></path><path d="M651 0L547 0L622 84.7Z" fill="#666667" stroke="#666667"></path><path d="M369 460.6L491 507.3L454 428.6Z" fill="#e2e2e2" stroke="#e2e2e2"></path><path d="M249 117.4L361 251.1L379 195.4Z" fill="#838384" stroke="#838384"></path><path d="M298 70.7L379 195.4L409 116.7Z" fill="#c1c1c1" stroke="#c1c1c1"></path><path d="M466 0L406 0L442 74.7Z" fill="#b2b2b2" stroke="#b2b2b2"></path><path d="M406 0L298 70.7L409 116.7Z" fill="#c1c1c1" stroke="#c1c1c1"></path><path d="M133 227.1L224 305.9L243 299.1Z" fill="#c1c1c1" stroke="#c1c1c1"></path><path d="M243 299.1L224 305.9L289 382.6Z" fill="#585859" stroke="#585859"></path><path d="M298 70.7L249 117.4L379 195.4Z" fill="#838384" stroke="#838384"></path><path d="M675 0L622 84.7L682 127.4Z" fill="#838384" stroke="#838384"></path><path d="M675 0L651 0L622 84.7Z" fill="#f2f2f2" stroke="#f2f2f2"></path><path d="M802 161.4L767 113.7L726 224.1Z" fill="#666667" stroke="#666667"></path><path d="M726 224.1L767 113.7L682 127.4Z" fill="#939393" stroke="#939393"></path><path d="M767 113.7L675 0L682 127.4Z" fill="#585859" stroke="#585859"></path><path d="M232 111.7L230 125.4L249 117.4Z" fill="#666667" stroke="#666667"></path><path d="M249 117.4L230 125.4L361 251.1Z" fill="#f2f2f2" stroke="#f2f2f2"></path><path d="M369 460.6L484 559.3L491 507.3Z" fill="#666667" stroke="#666667"></path><path d="M491 507.3L595 556.3L643 438.6Z" fill="#c1c1c1" stroke="#c1c1c1"></path><path d="M298 70.7L232 111.7L249 117.4Z" fill="#838384" stroke="#838384"></path><path d="M179 0L232 111.7L298 70.7Z" fill="#585859" stroke="#585859"></path><path d="M861 286.1L802 161.4L726 224.1Z" fill="#b2b2b2" stroke="#b2b2b2"></path><path d="M289 382.6L302 485.3L369 460.6Z" fill="#f2f2f2" stroke="#f2f2f2"></path><path d="M369 460.6L322 509.3L484 559.3Z" fill="#666667" stroke="#666667"></path><path d="M194 395.9L302 485.3L289 382.6Z" fill="#a2a2a2" stroke="#a2a2a2"></path><path d="M406 0L318 0L298 70.7Z" fill="#d1d1d1" stroke="#d1d1d1"></path><path d="M302 485.3L322 509.3L369 460.6Z" fill="#666667" stroke="#666667"></path><path d="M484 559.3L595 556.3L491 507.3Z" fill="#a2a2a2" stroke="#a2a2a2"></path><path d="M759 463.6L768 441.6L687 370.9Z" fill="#939393" stroke="#939393"></path><path d="M687 370.9L820 396.9L676 293.9Z" fill="#a2a2a2" stroke="#a2a2a2"></path><path d="M759 463.6L687 370.9L643 438.6Z" fill="#e2e2e2" stroke="#e2e2e2"></path><path d="M712 600L759 463.6L643 438.6Z" fill="#f2f2f2" stroke="#f2f2f2"></path><path d="M103 348.9L194 395.9L224 305.9Z" fill="#939393" stroke="#939393"></path><path d="M224 305.9L194 395.9L289 382.6Z" fill="#a2a2a2" stroke="#a2a2a2"></path><path d="M300 600L313 600L322 509.3Z" fill="#d1d1d1" stroke="#d1d1d1"></path><path d="M712 600L768 476.3L759 463.6Z" fill="#585859" stroke="#585859"></path><path d="M759 463.6L768 476.3L768 441.6Z" fill="#757575" stroke="#757575"></path><path d="M768 441.6L820 396.9L687 370.9Z" fill="#c1c1c1" stroke="#c1c1c1"></path><path d="M807 470.3L820 396.9L768 441.6Z" fill="#b2b2b2" stroke="#b2b2b2"></path><path d="M313 600L489 600L484 559.3Z" fill="#939393" stroke="#939393"></path><path d="M484 559.3L532 600L595 556.3Z" fill="#585859" stroke="#585859"></path><path d="M489 600L532 600L484 559.3Z" fill="#e2e2e2" stroke="#e2e2e2"></path><path d="M595 556.3L712 600L643 438.6Z" fill="#585859" stroke="#585859"></path><path d="M532 600L579 600L595 556.3Z" fill="#f2f2f2" stroke="#f2f2f2"></path><path d="M820 396.9L861 286.1L676 293.9Z" fill="#757575" stroke="#757575"></path><path d="M811 600L807 470.3L768 476.3Z" fill="#f2f2f2" stroke="#f2f2f2"></path><path d="M768 476.3L807 470.3L768 441.6Z" fill="#a2a2a2" stroke="#a2a2a2"></path><path d="M900 335.9L900 285.1L861 286.1Z" fill="#d1d1d1" stroke="#d1d1d1"></path><path d="M109 229.1L133 227.1L64 191.4Z" fill="#a2a2a2" stroke="#a2a2a2"></path><path d="M230 125.4L133 227.1L243 299.1Z" fill="#f2f2f2" stroke="#f2f2f2"></path><path d="M133 227.1L230 125.4L64 191.4Z" fill="#666667" stroke="#666667"></path><path d="M103 348.9L173 425.6L194 395.9Z" fill="#757575" stroke="#757575"></path><path d="M194 395.9L173 425.6L302 485.3Z" fill="#e2e2e2" stroke="#e2e2e2"></path><path d="M900 186.4L854 106.7L802 161.4Z" fill="#d1d1d1" stroke="#d1d1d1"></path><path d="M802 161.4L854 106.7L767 113.7Z" fill="#d1d1d1" stroke="#d1d1d1"></path><path d="M767 113.7L793 0L675 0Z" fill="#e2e2e2" stroke="#e2e2e2"></path><path d="M854 106.7L793 0L767 113.7Z" fill="#585859" stroke="#585859"></path><path d="M900 335.9L861 286.1L820 396.9Z" fill="#757575" stroke="#757575"></path><path d="M861 286.1L900 186.4L802 161.4Z" fill="#838384" stroke="#838384"></path><path d="M64 191.4L230 125.4L113 39.7Z" fill="#f2f2f2" stroke="#f2f2f2"></path><path d="M133 227.1L103 348.9L224 305.9Z" fill="#757575" stroke="#757575"></path><path d="M300 600L322 509.3L302 485.3Z" fill="#c1c1c1" stroke="#c1c1c1"></path><path d="M322 509.3L313 600L484 559.3Z" fill="#b2b2b2" stroke="#b2b2b2"></path><path d="M900 285.1L900 186.4L861 286.1Z" fill="#e2e2e2" stroke="#e2e2e2"></path><path d="M854 106.7L900 57.7L793 0Z" fill="#585859" stroke="#585859"></path><path d="M900 414.6L900 335.9L820 396.9Z" fill="#757575" stroke="#757575"></path><path d="M579 600L712 600L595 556.3Z" fill="#939393" stroke="#939393"></path><path d="M176 516.3L300 600L302 485.3Z" fill="#666667" stroke="#666667"></path><path d="M318 0L179 0L298 70.7Z" fill="#b2b2b2" stroke="#b2b2b2"></path><path d="M109 229.1L103 348.9L133 227.1Z" fill="#757575" stroke="#757575"></path><path d="M173 425.6L176 516.3L302 485.3Z" fill="#939393" stroke="#939393"></path><path d="M98 435.6L176 516.3L173 425.6Z" fill="#f2f2f2" stroke="#f2f2f2"></path><path d="M807 470.3L900 414.6L820 396.9Z" fill="#585859" stroke="#585859"></path><path d="M900 551.3L900 414.6L807 470.3Z" fill="#f2f2f2" stroke="#f2f2f2"></path><path d="M900 186.4L900 57.7L854 106.7Z" fill="#838384" stroke="#838384"></path><path d="M113 39.7L230 125.4L232 111.7Z" fill="#666667" stroke="#666667"></path><path d="M109 229.1L0 259.1L103 348.9Z" fill="#e2e2e2" stroke="#e2e2e2"></path><path d="M179 0L113 39.7L232 111.7Z" fill="#757575" stroke="#757575"></path><path d="M0 376.6L98 435.6L103 348.9Z" fill="#e2e2e2" stroke="#e2e2e2"></path><path d="M103 348.9L98 435.6L173 425.6Z" fill="#a2a2a2" stroke="#a2a2a2"></path><path d="M712 600L811 600L768 476.3Z" fill="#e2e2e2" stroke="#e2e2e2"></path><path d="M900 57.7L900 0L793 0Z" fill="#838384" stroke="#838384"></path><path d="M134 600L190 600L176 516.3Z" fill="#c1c1c1" stroke="#c1c1c1"></path><path d="M176 516.3L190 600L300 600Z" fill="#585859" stroke="#585859"></path><path d="M811 600L900 551.3L807 470.3Z" fill="#d1d1d1" stroke="#d1d1d1"></path><path d="M0 68.7L0 160.4L64 191.4Z" fill="#b2b2b2" stroke="#b2b2b2"></path><path d="M179 0L73 0L113 39.7Z" fill="#e2e2e2" stroke="#e2e2e2"></path><path d="M64 191.4L0 259.1L109 229.1Z" fill="#939393" stroke="#939393"></path><path d="M0 160.4L0 259.1L64 191.4Z" fill="#d1d1d1" stroke="#d1d1d1"></path><path d="M66 534.3L134 600L176 516.3Z" fill="#a2a2a2" stroke="#a2a2a2"></path><path d="M66 534.3L176 516.3L98 435.6Z" fill="#838384" stroke="#838384"></path><path d="M0 259.1L0 315.9L103 348.9Z" fill="#c1c1c1" stroke="#c1c1c1"></path><path d="M0 68.7L64 191.4L113 39.7Z" fill="#838384" stroke="#838384"></path><path d="M0 315.9L0 376.6L103 348.9Z" fill="#e2e2e2" stroke="#e2e2e2"></path><path d="M0 532.3L66 534.3L98 435.6Z" fill="#b2b2b2" stroke="#b2b2b2"></path><path d="M811 600L900 600L900 551.3Z" fill="#585859" stroke="#585859"></path><path d="M73 0L0 68.7L113 39.7Z" fill="#c1c1c1" stroke="#c1c1c1"></path><path d="M73 0L0 0L0 68.7Z" fill="#c1c1c1" stroke="#c1c1c1"></path><path d="M0 376.6L0 532.3L98 435.6Z" fill="#939393" stroke="#939393"></path><path d="M66 534.3L0 600L134 600Z" fill="#b2b2b2" stroke="#b2b2b2"></path><path d="M0 532.3L0 600L66 534.3Z" fill="#b2b2b2" stroke="#b2b2b2"></path></g></svg>